<svg
  version="1.1"
  viewBox="0 0 1125.1 436.48"
  xmlns="http://www.w3.org/2000/svg"
  class="group {{ with .class }}{{ . }}{{ end }}"
>
 <g transform="translate(-34.024 -279.69)">
  <g stroke-width=".36027">
   <path
    d="m957.05 475.39q1.4073-2.111 3.5183-2.4628 2.4628-0.70366 3.8701 0.35183t1.4073 3.5183q0.35183 2.4628-1.7592 6.6848-7.0366 13.37-18.647 28.85-11.259 15.481-23.924 29.202-12.666 13.37-24.628 22.165-11.962 8.7958-20.054 8.7958-11.61 0-19.351-4.5738t-12.314-11.259q-4.222-6.6848-5.9811-14.425-1.7592-8.0921-1.0555-14.777 0.35183-5.6293 2.4628-20.054 2.111-14.777 5.6293-33.776 3.5183-19.351 7.7403-41.164 4.5738-22.165 9.4994-42.571-5.9811 0.70366-11.962 1.4073t-10.907 0.70366q-11.259 0-21.11-2.4628-10.203-2.8146-15.129-5.2774-2.8146-1.4073-2.4628-3.8701 0.35183-2.8146 2.111-5.2774 1.7592-2.8146 4.5738-4.5738 2.4628-2.111 4.5738-2.111 6.6848 0.70366 14.425 1.4073 7.7403 0.35183 16.888 0 6.6848-0.35183 12.666-1.0555 6.3329-0.70366 12.314-1.7592 4.5738-16.888 8.7958-29.202 4.5738-12.666 8.0921-17.592 1.0555-1.7592 4.5738-2.8146 3.8701-1.4073 8.0921-1.7592 4.222-0.70366 8.0921 0 3.8701 0.35183 5.6293 2.4628 1.7592 2.8146 1.4073 14.425-0.35183 11.61-3.8701 29.554 14.777 0 26.035 1.7592 11.61 1.4073 19.702 3.5183 8.0921 1.7592 13.018 3.8701 4.9256 1.7592 7.3884 2.4628t2.4628 3.5183q0.35183 2.8146-1.0555 5.9811-1.0555 2.8146-3.8701 4.9256t-6.3329 1.4073q-3.5183-0.35183-8.0921-1.4073-4.222-1.0555-10.555-1.7592-5.9811-0.70366-14.425-1.4073t-19.702-0.70366q-2.111 0-4.9256 0.35183-2.4628 0-5.2774 0-1.4073 5.6293-2.8146 11.259-1.0555 5.2774-3.1665 11.259-4.5738 14.073-10.555 30.609-5.2774 14.425-12.666 33.072t-16.536 39.757q-2.111 15.129 0.35183 23.221 2.8146 7.7403 6.6848 11.259 4.5738 3.8701 11.259 4.222 5.2774 0.70366 12.666-3.5183 7.7403-4.5738 15.832-11.962t16.184-16.184q8.4439-8.7958 15.481-17.24t12.314-15.129q5.2774-7.0366 7.3884-9.8512zm-106.25 18.999q-4.9256 7.0366-12.666 17.592-7.7403 10.203-16.184 20.758-8.0921 10.203-16.184 18.999-7.7403 8.4439-13.018 11.962-3.5183 2.111-8.0921 3.5183t-9.4994 1.7592q-4.5738 0.35183-8.7958-0.70366-4.222-0.70366-7.3884-2.8146-3.1665-2.4628-5.2774-7.0366-1.7592-3.8701-3.5183-10.203-1.4073-6.333-1.0555-15.832-8.4439 14.073-18.647 21.813-10.203 7.3884-19.351 10.907-10.555 3.8701-21.11 4.5738-4.9256 0-10.555-3.5183-5.6293-3.1665-9.4994-10.203-3.8701-7.3884-4.9256-18.647-1.0555-11.61 2.8146-27.443 4.9256-21.462 15.481-39.053 10.907-17.592 23.573-29.906 12.666-12.666 24.98-18.999 12.314-6.3329 20.406-5.6293 9.4994 1.7592 15.481 5.6293 4.9256 3.5183 6.3329 10.555 1.7592 6.6848-5.6293 17.943 4.9256-1.0555 8.0921-1.4073 3.5183-0.35183 5.2774-0.35183 2.111 0 2.8146 0.35183 0.35183 0.70366 0.35183 3.1665 0 2.111-1.0555 8.0921t-3.1665 16.184-5.6293 26.387q-0.70366 3.1665-1.4073 5.9811-0.35183 2.4628-1.0555 5.2774-0.35183 2.4628-1.0555 5.9811t-1.7592 8.7958q-0.35183 3.1665-0.35183 7.0366 0.35183 3.5183 1.4073 6.6848 1.0555 3.1665 3.1665 5.2775 2.4628 1.7592 6.6848 1.7592 3.5183 0 9.1476-4.222 5.6293-4.5738 11.962-11.259 6.3329-7.0366 13.018-15.129 7.0366-8.4439 13.018-16.184t10.555-13.721q4.9256-5.9811 7.0366-8.7958 2.8146-3.1665 5.6293-3.5183 2.8146-0.70366 4.222 1.4073t0.35183 6.3329q-0.70366 4.222-4.9256 9.8512zm-103.09 15.481q1.7592-7.0366 4.222-16.536 2.4628-9.4994 4.222-18.295t2.4628-14.425q1.0555-5.9811-0.35183-5.6293-1.7592 0.35183-3.8701 1.0555-1.7592 0.70366-4.5738 1.0555t-5.6293 1.0555q2.8146-5.6293 3.1665-9.1476 0.70366-3.8701 0.35183-5.9811-0.35183-2.4628-1.4073-3.8701-3.8701-3.1665-13.721 5.2774-9.4994 8.0921-22.165 30.257-5.2774 9.1476-8.4439 19.702-3.1665 10.203-4.5738 19.351-1.0555 9.1476-0.35183 16.184 0.70366 6.6848 2.8146 8.7958 3.8701 3.8701 8.7958 3.8701 4.9256-0.35183 9.8512-2.8146 5.2774-2.8146 10.203-7.0366 5.2774-4.222 9.1476-8.7958 4.222-4.5738 6.6848-8.4439 2.8146-3.8701 3.1665-5.6293zm-237.13 52.775q-2.4628 3.8701-5.2774 4.9256-3.1665 1.4073-5.2774 0.35183-2.4628-0.70366-3.1665-3.5183t1.4073-7.0366q1.0555-2.111 4.9256-9.4994 3.5183-7.3884 8.7958-17.592 4.9256-10.555 10.907-22.517 5.9811-12.314 11.259-23.221 5.6293-10.907 10.203-19.351 4.5738-8.7958 6.6848-12.666-3.8701-3.5183-5.2774-4.9256-1.4073-1.7592-2.111-7.0366-0.70366-4.5738 2.111-11.962t7.3884-14.073q4.5738-7.0366 10.203-11.962t10.907-4.9256q9.8512 0 13.721 6.3329 4.222 6.3329 4.9256 13.018 0.70366 4.5738-0.70366 11.61t-5.2774 12.666q1.0555 0.70366 2.8146 1.7592 1.7592 0.70366 5.6293 0.70366 5.6293 0 7.7403-0.70366 2.4628-0.70366 7.3884-0.70366 5.9811 0 9.8512 3.1665 3.8701 2.8146 6.3329 7.3884 2.4628 4.222 3.5183 9.4994 1.4073 4.9256 1.7592 9.1476 1.0555 8.7958-4.5738 18.295-5.6293 9.4994-13.721 20.758-4.9256 7.0366-9.8512 15.832t-4.222 15.832q0.70366 4.5738 2.4628 7.3884t9.8512 2.8146q5.9811 0 13.018-4.222 7.3884-4.5738 14.777-11.259 7.7403-7.0366 15.129-15.129 7.3884-8.4439 13.721-16.184 6.3329-8.0921 10.555-14.425 4.5738-6.333 6.6848-9.1476 1.7592-2.8146 4.5738-3.8701t4.9256 0 2.4628 4.222q0.70366 3.1665-2.4628 8.4439-2.111 3.5183-7.3884 11.259-4.9256 7.7403-12.314 17.24-7.0366 9.4994-15.832 19.702-8.7958 9.8512-18.647 18.295-9.4994 8.0921-19.351 13.37-9.4994 5.2774-18.295 5.2774-9.1476 0-15.129-3.5183t-9.8512-8.4439q-3.5183-5.2774-5.2775-11.259-1.4073-6.3329-1.0555-11.61 0.35183-4.222 2.111-8.7958 2.111-4.9256 4.5738-9.8512 2.8146-5.2774 5.6293-10.203 3.1665-5.2774 5.6293-10.203 5.9811-10.203 9.4994-17.24 3.8701-7.3884 3.8701-12.314 0-3.1665-1.4073-5.6293t-4.5738-2.4628q-2.111 0-3.1665 0.35183-0.70366 0-1.7592 0-0.70366 0-2.4628 0.35183-1.4073 0-4.5738 0-4.5738 0-7.7403-1.4073-3.1665-1.4073-5.9811-2.111-1.4073 2.4628-6.3329 10.555t-11.61 18.999q-6.3329 10.907-13.721 22.869-7.0366 11.962-13.37 22.517-6.333 10.203-10.555 17.592-4.5738 7.0366-5.6293 8.4439zm38.701-71.422q-10.555 15.481-23.924 30.257-13.37 14.425-28.498 26.035-14.777 11.259-30.609 18.295-15.481 7.0366-30.257 7.0366-7.7403 0-16.888-3.8701-8.7958-3.5183-16.184-11.259-7.3884-7.7403-11.962-20.054-4.222-12.314-2.4628-29.906 1.4073-14.425 8.7958-30.257 7.7403-16.184 18.647-29.554 11.259-13.37 24.98-22.165 14.073-8.7958 28.146-8.7958 13.37 0 19.351 6.6848t5.2774 16.536q-1.0555 10.907-6.3329 20.054-4.9256 9.1476-11.962 16.536t-15.129 13.37q-7.7403 5.9811-14.777 10.907-7.7403 5.2774-14.777 10.203-7.0366 4.5738-12.314 8.4439 0.35183 8.7958 3.1665 14.777t7.0366 9.8512q4.222 3.5183 9.4994 5.2775 5.6293 1.4073 11.259 1.4073 11.962 0 24.98-7.3884 13.018-7.7403 25.332-18.295 12.666-10.907 23.221-22.517 10.907-11.61 17.943-20.054 2.4628-2.8146 4.9256-3.1665 2.8146-0.70366 4.222 0.70366 1.7592 1.0555 1.7592 4.222 0 2.8146-2.4628 6.6848zm-90.068-54.182q-4.222 0-10.203 4.222-5.6293 4.222-11.259 12.314-5.6293 7.7403-10.555 19.351-4.9256 11.259-7.3884 26.035 4.222-3.1665 9.1476-6.3329 4.9256-3.5183 9.8512-7.3884 15.129-11.61 21.11-20.406t6.6848-15.129q0.70366-6.6848-1.4073-9.4994-2.111-3.1665-5.9811-3.1665zm-123.14-2.111q4.5738-3.5183 8.7958-5.2774 4.5738-2.111 8.0921-2.8146 3.8701-1.0555 7.7403-0.70366 9.4994 0.70366 11.61 5.9811 2.4628 5.2775 0.70366 16.888-1.0555 5.9811-4.222 15.129t-7.3884 22.517q-4.222 13.018-9.1476 29.906-4.5738 16.888-8.7958 37.998-4.222 17.24-9.1476 39.757-4.222 19.702-10.203 47.497-5.6293 27.795-12.314 63.681-1.7592 8.7958-7.7403 10.203-5.6293 1.4073-11.962-1.4073-2.4628-1.4073-4.5738-3.1665-1.7592-1.7592-3.8701-4.222-2.111-2.111-3.5183-5.9811 8.0921-29.554 14.073-53.83 6.3329-24.276 11.259-42.22 5.2774-20.758 9.8512-37.294 1.7592-7.3884 3.1665-14.425 1.7592-7.3884 3.5183-14.425-4.5738 7.3884-9.8512 14.073t-11.61 11.61-13.721 7.3884q-7.0366 2.8146-14.777 1.7592-18.999-2.4628-27.091-14.073-7.7403-11.61-6.6848-30.257 0.35183-7.3884 2.111-16.184 1.7592-8.7958 3.8701-16.888 2.111-8.0921 3.8701-14.425 2.111-6.6848 3.1665-9.4994 4.222-13.37 5.9811-22.869 2.111-9.4994-2.8146-15.832 4.9256-3.1665 9.1476-4.222 4.5738-1.4073 8.0921-2.111 3.8701-0.35183 7.7403 0 9.4994 1.4073 10.907 7.0366 1.7592 5.6293-1.0555 16.888-1.4073 5.9811-4.5738 15.481-3.1665 9.1476-6.6848 18.999-3.5183 9.8512-6.3329 18.295-2.8146 8.0921-3.1665 11.61-3.1665 15.832-0.35183 24.628 2.8146 8.4439 12.314 8.4439 4.5738 0 10.203-3.8701 5.6293-4.222 11.259-10.907 5.9811-6.6848 11.61-15.129 5.6293-8.7958 10.203-17.592 4.9256-8.7958 8.4439-17.24 3.8701-8.4439 5.6293-15.129 2.4628-13.018 3.1665-20.406t-4.9256-13.37zm-232.56-36.59q-1.7592 6.3329-4.5738 18.295-2.4628 11.61-5.6293 26.739-2.8146 15.129-6.3329 32.017-3.1665 16.536-5.9811 32.72-2.4628 16.184-4.5738 30.609-2.111 14.073-2.4628 23.924-0.35183 10.907 0 21.462 0.35183 9.1476 1.0555 18.999 1.0555 10.203 3.5183 17.943-5.9811 2.8146-10.555 3.8701-4.5738 1.4073-7.3884 2.111-3.5183 0.70366-5.9811 0.70366-2.8146 0-6.6848-0.70366-3.8701-0.35183-7.0366-3.5183-3.1665-3.1665-5.2775-9.8512-2.111-6.6848-1.4073-19.351 0.35183-8.4439 2.8146-21.11 2.111-12.314 5.2775-27.091 3.1665-15.129 7.0366-30.961 4.222-16.184 8.0921-31.313 3.8701-15.481 7.0366-29.202 3.5183-13.721 5.9811-23.573 3.1665-12.666 7.0366-29.554 6.6848-28.85 20.054-86.55 2.4628-1.7592 5.2775-3.1665 2.8146-1.7592 4.9256-2.8146 2.4628-1.4073 4.9256-2.111 11.259-4.222 15.832-1.0555 4.9256 3.1665 5.6293 12.666 0.35183 6.3329 1.4073 18.295 1.4073 11.962 2.4628 26.739t1.7592 30.609q0.70366 15.481 0.70366 28.85 0 8.7958 0.35183 20.758 0.35183 11.962 1.0555 25.332t1.7592 27.443q1.0555 13.721 2.4628 26.387 1.4073 12.666 2.8146 23.221 1.7592 10.555 3.5183 17.24 0.70366 2.8146 1.4073 5.2774 1.0555 2.4628 1.7592 4.9256 2.111-8.4439 4.5738-20.054 2.8146-11.61 5.6293-24.628 3.1665-13.37 5.9811-27.091 2.8146-14.073 4.9256-26.387 1.7592-9.8512 3.8701-25.332 2.111-15.481 4.9256-33.424-3.8701-1.4073-7.3884-2.8146-3.1665-1.4073-6.3329-3.5183t-5.2774-4.9256q0.35183-4.5738 0.70366-6.6848 0.70366-2.111 3.5183-0.35183 2.111 1.0555 6.3329 2.4628 4.5738 1.4073 10.555 2.111 1.7592-9.8512 3.8701-19.702 2.4628-9.8512 4.9256-18.999 3.8701-15.129 8.7958-27.091 4.9256-12.314 11.259-20.758 6.6848-8.4439 15.481-13.018t20.406-4.9256q10.907 0 17.592 9.1476 7.0366 8.7958 5.9811 30.961-0.70366 16.536-7.0366 29.906-5.9811 13.018-14.777 23.221-8.7958 9.8512-19.351 16.536-10.555 6.3329-20.054 9.1476-3.1665 16.536-5.9811 33.424-2.8146 16.536-5.6293 32.368-2.4628 15.481-5.2775 29.554-2.4628 14.073-4.9256 24.98-2.4628 10.555-5.2774 22.869-2.4628 10.555-5.9811 24.276t-7.3884 28.85q-1.4073 3.1665-3.5183 5.2774-2.111 2.4628-4.222 3.8701-2.4628 1.7592-4.9256 2.8146-7.0366 2.8146-11.962 1.0555-4.9256-1.7592-8.7958-9.4994-3.8701-8.0921-7.0366-20.054-2.8146-11.962-5.9811-26.035-3.1665-15.129-4.9256-32.72-1.4073-17.943-2.4628-36.238-0.70366-18.647-1.0555-36.942t-1.4073-34.479q-1.7592-21.11-3.5183-37.646-1.7592-16.888-3.8701-28.498-1.4073 7.0366-3.1665 15.832-1.7592 8.7958-3.8701 17.943zm118.21-14.777q-1.7592 6.6848-2.8146 12.666 8.4439-4.9256 15.832-12.314 7.3884-7.7403 12.666-16.184t8.0921-16.888q3.1665-8.4439 3.5183-15.481 0.35183-4.9256-1.0555-7.7403-1.0555-3.1665-4.222-3.1665-1.7592 0-5.6293 2.111-3.5183 1.7592-8.0921 8.0921-4.5738 5.9811-9.4994 17.592-4.5738 11.61-8.7958 31.313z"
    class="fill-current {{ with .dark }}text-white{{ else }}text-black{{ end }} group-hover:text-opacity-80 duration-150"
    />
  </g>
 </g>
 <g transform="translate(-34.024 -279.69)">
  <g transform="matrix(.69235 0 0 .69235 858.32 63.844)">
   <g
    transform="matrix(20.276 0 0 20.276 120.24 301.63)"
    fill="#ef4444"
    fill-rule="evenodd"
  >
    <path
      d="m10.646 0.646a0.5 0.5 0 0 1 0.708 0l4 4a0.5 0.5 0 0 1 0 0.708l-1.902 1.902-0.829 3.313a1.5 1.5 0 0 1-1.024 1.073l-10.345 3.104 3.104-10.346a1.5 1.5 0 0 1 1.072-1.023l3.313-0.828zm-1.8 2.908-3.173 0.793a0.5 0.5 0 0 0-0.358 0.342l-2.57 8.565 8.567-2.57a0.5 0.5 0 0 0 0.34-0.357l0.794-3.174-3.6-3.6z"
    />
    <path d="M 2.832,13.228 8,9 A 1,1 0 1 0 7,8 l -4.228,5.168 -0.026,0.086 z"/>
   </g>
  </g>
 </g>
</svg>
