<svg xmlns="http://www.w3.org/2000/svg" width="256" height="256" viewBox="0 0 100 100"><rect width="100" height="100" rx="20" fill="#374151"></rect><path d="M50.51 81.99L27.17 81.99L27.17 18.01L49.10 18.01Q59.95 18.01 65.62 22.36Q71.29 26.71 71.29 35.32L71.29 35.32Q71.29 39.72 68.92 43.23Q66.55 46.75 61.98 48.68L61.98 48.68Q67.16 50.09 70.00 53.98Q72.83 57.87 72.83 63.32L72.83 63.32Q72.83 72.32 67.05 77.16Q61.27 81.99 50.51 81.99L50.51 81.99ZM51.56 53.12L38.29 53.12L38.29 73.12L50.64 73.12Q55.87 73.12 58.81 70.52Q61.76 67.93 61.76 63.32L61.76 63.32Q61.76 53.34 51.56 53.12L51.56 53.12ZM38.29 26.97L38.29 44.95L49.19 44.95Q54.37 44.95 57.29 42.60Q60.22 40.24 60.22 35.94L60.22 35.94Q60.22 31.19 57.51 29.08Q54.81 26.97 49.10 26.97L49.10 26.97L38.29 26.97Z" fill="#fff"></path></svg>