<svg xmlns="http://www.w3.org/2000/svg" version="1.1" xmlns:xlink="http://www.w3.org/1999/xlink" xmlns:svgjs="http://svgjs.com/svgjs" width="16" height="16"><svg fill="currentColor" version="1.1" viewBox="0 0 16 16" xmlns="http://www.w3.org/2000/svg">
 <g>
  <path d="m10.871 0.51562a0.5 0.5 0 0 0-0.22461 0.13086l-1.9043 1.9023-3.3125 0.82812a1.5 1.5 0 0 0-1.0723 1.0234l-3.1035 10.346 10.346-3.1035a1.5 1.5 0 0 0 1.0234-1.0742l0.82812-3.3125 1.9023-1.9023a0.5 0.5 0 0 0 0-0.70703l-4-4a0.5 0.5 0 0 0-0.48242-0.13086zm-2.0254 3.0391 3.5996 3.5977-0.79297 3.1738a0.5 0.5 0 0 1-0.33984 0.35742l-8.4785 2.543 5.166-4.2266a1 1 0 1 0-1-1l-4.2285 5.168-0.025391 0.08594h-0.00195l2.5703-8.5645a0.5 0.5 0 0 1 0.35938-0.3418z" fill="#dc2626"></path>
 </g>
</svg><style>@media (prefers-color-scheme: light) { :root { filter: none; } }
@media (prefers-color-scheme: dark) { :root { filter: contrast(0.8333333333333334) brightness(1.7); } }
</style></svg>